<svg width="64" height="64" viewBox="0 0 64 64" fill="none" xmlns="http://www.w3.org/2000/svg">
<g clip-path="url(#clip0_27_90)">
<path d="M62.885 11.355C62.84 11.345 62.79 11.35 62.745 11.35C62.415 11.37 62.08 11.385 61.75 11.42C61.17 11.485 60.605 11.535 60.02 11.38C59.405 11.215 58.765 11.12 58.14 10.985C57.575 10.865 57.01 10.715 56.44 10.615C55.845 10.51 55.245 10.44 54.65 10.36C54.145 10.29 53.635 10.24 53.135 10.155C52.995 10.13 52.85 10.045 52.735 9.95C52.21 9.50999 51.695 9.04999 51.175 8.60499C51.07 8.51499 50.94 8.43 50.81 8.395C50.145 8.235 49.475 8.095 48.82 7.88C48.09 7.645 47.325 7.49999 46.575 7.325C46.03 7.2 45.49 7.055 44.94 6.97C44.425 6.89 43.9 6.865 43.38 6.825C43.255 6.815 43.13 6.835 43.015 6.84C42.97 7.01 42.93 7.14 42.875 7.34C42.815 7.2 42.775 7.145 42.765 7.08C42.7 6.74 42.705 6.75 42.375 6.705C42.215 6.685 42.05 6.635 41.9 6.57C41.615 6.45 41.345 6.305 41.06 6.19C40.945 6.145 40.8 6.12 40.685 6.145C40.175 6.245 39.665 6.345 39.185 6.57C38.905 6.7 38.615 6.81 38.335 6.925C37.625 7.225 36.91 7.515 36.21 7.825C35.565 8.11 34.92 8.31999 34.2 8.35999C33.57 8.39499 32.985 8.39 32.415 8.08C31.795 7.745 31.105 7.555 30.54 7.09C29.975 6.62 29.38 6.195 28.95 5.58C28.78 5.34 28.58 5.115 28.39 4.89C28.34 4.835 28.275 4.795 28.215 4.745C28.195 4.755 28.175 4.765 28.15 4.775C28.29 5.275 28.195 5.815 28.445 6.3C28.545 6.49 28.605 6.695 28.68 6.895C28.945 7.61 29.275 8.28999 29.785 8.865C29.88 8.975 29.955 9.105 30.09 9.295C29.84 9.28 29.675 9.28 29.515 9.26C28.635 9.145 27.74 9.125 26.87 8.91C26.08 8.715 25.255 8.65 24.5 8.295C23.87 7.995 23.185 7.81 22.66 7.32C22.52 7.19 22.365 7.07999 22.215 6.97C22.145 6.92 22.055 6.89 21.97 6.845C21.89 7.04999 22 7.17 22.08 7.295C22.21 7.495 22.36 7.68 22.47 7.89C22.86 8.65499 23.32 9.365 23.915 9.99C24.215 10.305 24.515 10.58 24.935 10.73C25.19 10.82 25.42 10.965 25.66 11.085C25.615 11.37 25.46 11.485 25.2 11.495C25.035 11.5 24.87 11.54 24.705 11.56C24.08 11.64 23.46 11.735 22.835 11.8C22.325 11.85 21.81 11.825 21.305 11.895C21.015 11.935 20.665 11.98 20.575 12.39C20.295 12.26 19.99 12.175 19.76 11.995C19.6 11.87 19.48 11.81 19.25 11.85C19.295 11.745 19.345 11.635 19.375 11.56C18.73 11.225 18.09 10.89 17.4 10.53C17.425 10.64 17.425 10.72 17.455 10.79C17.6 11.075 17.745 11.36 17.9 11.64L18.04 11.79C18.18 11.5 18.32 11.745 18.485 11.775C18.475 11.915 18.465 12.04 18.455 12.18C18.955 12.505 19.445 12.835 19.95 13.14C20.12 13.245 20.32 13.295 20.51 13.355C20.68 13.405 20.735 13.325 20.69 13.145C20.665 13.06 20.625 12.91 20.66 12.89C20.82 12.78 20.73 12.665 20.705 12.545C20.665 12.38 20.73 12.305 20.945 12.31C20.91 12.705 20.88 13.08 20.845 13.45C21.025 13.52 21.19 13.56 21.335 13.64C21.475 13.72 21.695 13.665 21.795 13.89C20.755 14.21 19.8 14.695 18.725 14.825C18.03 14.91 17.345 15.07 16.64 15.075C16.2 15.08 15.76 15.105 15.32 15.135C14.51 15.195 13.71 15.125 12.91 14.98C12.595 14.925 12.27 14.905 11.875 14.855C11.985 14.945 12.025 14.995 12.075 15.015C12.7 15.265 13.205 15.705 13.77 16.055C13.92 16.15 14.07 16.26 14.235 16.31C14.97 16.52 15.68 16.815 16.445 16.95C16.81 17.015 17.18 17.105 17.55 17.18C17.775 17.225 17.995 17.29 18.29 17.365C18.16 17.43 18.11 17.475 18.05 17.485C17.935 17.51 17.815 17.515 17.7 17.545C16.035 17.93 14.37 18.31 12.705 18.7C12.145 18.83 11.59 18.91 11.01 18.84C10.515 18.785 10.015 18.765 9.515 18.73C9.44 18.725 9.365 18.74 9.215 18.75C9.555 19.15 9.845 19.5 10.145 19.85C10.19 19.9 10.265 19.925 10.33 19.95C10.825 20.145 11.315 20.35 11.82 20.535C12.05 20.62 12.295 20.675 12.54 20.715C13.16 20.81 13.785 20.885 14.41 20.98C14.51 20.995 14.645 20.975 14.705 21.12C14.515 21.175 14.345 21.225 14.175 21.27C12.85 21.595 11.525 21.925 10.2 22.245C9.995 22.295 9.78 22.335 9.565 22.335C8.475 22.335 7.38 22.325 6.29 22.3C6.11 22.295 5.915 22.24 5.75 22.165C5.115 21.875 4.49 21.56 3.855 21.265C3.565 21.135 3.2 21.23 2.94 21.5C3.21 21.835 3.475 22.18 3.75 22.515C3.87 22.66 3.98 22.83 4.135 22.93C4.93 23.425 5.735 23.9 6.54 24.38C6.785 24.525 7.04 24.615 7.34 24.62C8.23 24.645 9.12 24.695 10.01 24.74C10.095 24.745 10.205 24.72 10.235 24.88C9.845 25.02 9.445 25.14 9.075 25.31C8.695 25.485 8.31 25.53 7.9 25.51C7.07 25.465 6.24 25.435 5.415 25.4C5.345 25.395 5.27 25.395 5.205 25.375C4.425 25.165 3.645 24.955 2.87 24.745C2.71 24.7 2.555 24.595 2.405 24.605C2.22 24.62 2.11 24.545 1.99 24.45C1.425 24 0.86 23.545 0.295 23.095C0.23 23.045 0.15 23.005 0.0799999 22.96C0.0849999 23.12 0.14 23.235 0.2 23.345C0.415 23.74 0.655 24.12 0.845 24.525C0.955 24.765 1.09 24.98 1.275 25.165C1.695 25.6 2.1 26.045 2.535 26.47C2.71 26.64 2.925 26.775 3.14 26.895C3.41 27.045 3.695 27.165 3.97 27.3C4.32 27.47 4.685 27.62 5.015 27.825C5.17 27.92 5.295 27.97 5.47 27.96C6.17 27.92 6.87 27.895 7.57 27.85C7.705 27.84 7.85 27.795 7.97 27.73C8.165 27.625 8.345 27.48 8.535 27.365C8.9 27.145 9.265 26.935 9.635 26.73C9.79 26.645 9.955 26.575 10.115 26.5C9.89 26.925 9.625 27.29 9.365 27.655C9.3 27.75 9.23 27.855 9.2 27.965C9.14 28.205 9.13 28.455 9.065 28.695C8.94 29.16 8.9 29.65 8.68 30.095C8.52 30.41 8.415 30.755 8.295 31.09C8.275 31.15 8.285 31.22 8.285 31.275C8.875 31.275 9.44 31.3 10 31.27C10.65 31.235 11.3 31.15 11.95 31.1C12.155 31.085 12.37 31.015 12.59 31.12C12.59 31.185 12.595 31.245 12.59 31.3C12.515 32.25 12.33 33.18 12.105 34.105C12.07 34.26 11.99 34.42 12.085 34.58C12.45 34.545 12.8 34.51 13.155 34.47C13.295 34.455 13.44 34.435 13.575 34.395C14.01 34.275 14.435 34.115 14.88 34.035C15.42 33.94 15.865 33.65 16.32 33.385C16.375 33.355 16.435 33.34 16.545 33.3C16.34 34.275 15.97 35.15 15.79 36.07C16.13 36.205 16.47 36.05 16.785 36.225C16.735 36.31 16.705 36.385 16.655 36.445C16.145 37.145 15.63 37.84 15.12 38.535C14.95 38.765 14.795 39 14.62 39.23C14.505 39.38 14.53 39.51 14.635 39.645C14.985 40.1 15.095 40.14 15.655 40.01C15.725 39.995 15.79 39.965 15.86 39.95C16.1 39.91 16.34 39.875 16.675 39.825C16.53 40.22 16.495 40.56 16.29 40.845C16 41.245 15.665 41.615 15.505 42.1C15.365 42.525 15.045 42.875 14.99 43.34C14.98 43.425 14.9 43.505 14.85 43.58C14.555 43.995 14.255 44.405 13.955 44.82C13.9 44.895 13.86 44.975 13.79 45.085C14.295 45.215 14.765 45.325 15.23 45.455C15.645 45.57 16.035 45.54 16.43 45.345C17.025 45.05 17.69 44.92 18.27 44.56C18.23 44.655 18.185 44.735 18.12 44.795C17.91 44.975 17.785 45.185 17.805 45.475C17.81 45.575 17.755 45.68 17.725 45.78C17.56 46.32 17.22 46.8 17.23 47.395C17.23 47.45 17.195 47.51 17.17 47.56C17.025 47.845 16.875 48.125 16.73 48.415C16.525 48.825 16.325 49.235 16.11 49.68C16.25 49.725 16.345 49.77 16.445 49.785C16.95 49.87 17.45 49.96 17.96 50.015C18.24 50.045 18.53 50.05 18.81 50.005C19.28 49.93 19.735 49.805 20.205 49.715C20.43 49.67 20.665 49.66 20.94 49.63C20.94 50.08 20.94 50.495 20.94 50.91C20.94 51.34 20.925 51.765 20.935 52.195C20.945 52.6 20.875 53.015 20.96 53.445C21.02 53.4 21.05 53.39 21.07 53.365C21.36 52.99 21.65 52.615 21.945 52.245C22 52.17 22.055 52.085 22.13 52.04C22.55 51.795 22.975 51.555 23.395 51.32C23.425 51.305 23.465 51.275 23.49 51.28C23.775 51.33 23.955 51.135 24.15 50.99C24.495 50.74 24.83 50.47 25.17 50.215C25.21 50.185 25.265 50.17 25.315 50.15C25.335 50.195 25.355 50.215 25.355 50.235C25.355 50.295 25.345 50.355 25.335 50.41C25.205 51.025 25.12 51.635 25.21 52.275C25.31 52.97 25.31 53.675 25.37 54.37C25.385 54.53 25.445 54.685 25.485 54.845C25.45 54.975 25.38 55.115 25.375 55.26C25.37 55.625 25.405 55.99 25.41 56.36C25.415 56.67 25.535 56.94 25.69 57.185C25.785 57.335 25.95 57.445 26.065 57.56C26.01 57.705 25.905 57.835 25.93 57.93C26.025 58.275 26.165 58.605 26.29 58.94C26.32 58.935 26.35 58.93 26.38 58.925C26.38 58.8 26.38 58.675 26.38 58.55C26.38 58.395 26.36 58.235 26.39 58.09C26.505 57.495 26.63 56.905 26.755 56.315C26.78 56.19 26.81 56.06 26.86 55.94C27.095 55.36 27.34 54.78 27.575 54.2C27.925 53.32 28.265 52.435 28.615 51.55C28.63 51.515 28.675 51.495 28.73 51.45C28.765 51.51 28.795 51.545 28.805 51.585C28.925 51.955 29.02 52.335 29.17 52.695C29.405 53.265 29.67 53.825 29.925 54.385C29.965 54.47 30.03 54.54 30.085 54.62C30.105 54.31 30.04 54.035 30.02 53.755C29.975 53.065 29.945 52.38 29.92 51.69C29.915 51.53 29.95 51.36 30.005 51.205C30.2 50.63 30.415 50.065 30.615 49.495C30.865 48.775 31.1 48.055 31.34 47.335C31.555 46.695 31.775 46.05 31.985 45.41C32.12 44.995 32.245 44.58 32.375 44.165C32.4 44.16 32.425 44.155 32.45 44.15C32.92 45.09 33.325 46.065 33.845 46.985C33.875 46.885 33.88 46.795 33.875 46.705C33.85 46.265 33.82 45.83 33.79 45.39C33.77 45.095 33.745 44.795 33.735 44.5C33.725 44.265 33.71 44.025 33.73 43.79C33.775 43.255 33.855 42.725 33.895 42.195C33.925 41.825 34.005 41.495 34.185 41.155C34.75 40.085 35.255 38.985 35.785 37.9C35.82 37.835 35.875 37.78 35.915 37.725C36.58 38.925 37.23 40.105 37.885 41.285C37.91 41.325 37.935 41.365 37.965 41.4C37.97 41.405 37.985 41.405 37.995 41.405C38.005 41.405 38.015 41.395 38.05 41.38C37.995 40.75 37.945 40.115 37.875 39.48C37.82 38.96 37.755 38.445 37.66 37.93C37.63 37.765 37.63 37.64 37.705 37.49C37.975 36.95 38.23 36.4 38.495 35.855C38.63 35.575 38.77 35.305 38.715 34.975C38.69 34.815 38.75 34.68 38.865 34.555C39.045 34.35 39.21 34.13 39.385 33.925C39.425 33.88 39.495 33.855 39.59 33.8C39.76 34.455 39.955 35.055 40.33 35.585C40.7 36.105 40.98 36.685 41.39 37.19C41.355 36.795 41.285 36.415 41.23 36.03C41.11 35.23 41.02 34.43 40.88 33.635C40.81 33.235 40.925 32.875 41.05 32.525C41.27 31.9 41.55 31.3 41.675 30.645C41.69 30.555 41.75 30.47 41.805 30.395C42.26 29.79 42.72 29.185 43.18 28.585C43.29 28.445 43.405 28.32 43.6 28.28C44.4 28.11 45.195 27.92 45.995 27.75C46.125 27.72 46.28 27.735 46.41 27.77C47.115 27.975 47.815 28.2 48.52 28.415C48.695 28.47 48.84 28.555 48.955 28.7C49.165 28.97 49.385 29.235 49.62 29.49C49.775 29.66 49.9 29.84 49.89 30.075C50.05 30.105 50.205 30.185 50.32 30.145C50.56 30.06 50.76 30.16 50.97 30.21C51.025 30.225 51.1 30.27 51.135 30.25C51.34 30.13 51.465 30.265 51.625 30.405C51.86 30.285 52.09 30.165 52.4 30.01C52.265 30.41 52.21 30.755 51.915 31C51.675 31.2 51.455 31.43 51.185 31.69C51.32 31.7 51.385 31.71 51.45 31.705C51.745 31.685 52.045 31.63 52.335 31.65C52.505 31.66 52.6 31.62 52.69 31.495C52.92 31.185 53.15 30.875 53.385 30.565C53.69 30.155 54.005 29.755 54.295 29.335C54.46 29.105 54.65 28.87 54.72 28.605C54.85 28.14 54.88 27.645 54.99 27.17C55.07 26.83 55.17 26.475 55.34 26.175C55.535 25.825 55.825 25.535 56.055 25.205C56.14 25.085 56.195 24.925 56.2 24.78C56.22 24.28 56.21 23.78 56.21 23.28C56.21 23.205 56.175 23.135 56.155 23.055C56.095 23.075 56.045 23.08 56.03 23.1C55.76 23.555 55.345 23.92 55.21 24.455C55.2 24.5 55.17 24.545 55.135 24.57C54.8 24.81 54.465 25.045 54.125 25.29C54.07 25.21 54.035 25.18 54.02 25.135C53.86 24.765 53.71 24.39 53.545 24.02C53.51 23.945 53.45 23.88 53.395 23.8C53.18 24.07 53 24.3 52.815 24.525C52.63 24.74 52.49 25 52.23 25.195C52.08 24.53 52.065 23.89 51.87 23.215C51.115 23.685 50.41 24.125 49.695 24.565C49.375 24.445 49.375 24.445 49.405 24.17C49.505 24.195 49.6 24.22 49.78 24.265C49.555 23.635 49.43 23.04 49.17 22.48C48.68 22.575 48.225 22.655 47.775 22.745C47.43 22.815 47.28 22.725 47.185 22.375C47.115 22.12 47.04 21.86 46.955 21.555C46.485 21.965 46.18 22.475 45.775 22.795C45.165 22.695 44.775 22.365 44.47 21.92C44.415 21.84 44.36 21.765 44.29 21.7C44.15 21.575 44.125 21.42 44.15 21.245C44.185 20.975 44.205 20.7 44.25 20.43C44.32 19.985 44.44 19.575 44.76 19.21C45.18 18.73 45.535 18.19 45.915 17.68C45.96 17.62 46.02 17.575 46.12 17.475C46.12 17.62 46.13 17.7 46.12 17.775C46.09 17.95 46.045 18.12 46.02 18.295C45.96 18.72 45.955 19.155 45.835 19.565C45.695 20.05 46.05 20.275 46.25 20.59C46.265 20.615 46.32 20.635 46.345 20.625C46.55 20.545 46.805 20.51 46.95 20.365C47.33 19.98 47.66 19.54 48.01 19.125C48.075 19.05 48.155 18.99 48.25 18.9C48.3 18.995 48.34 19.055 48.365 19.115C48.505 19.47 48.64 19.825 48.785 20.175C48.815 20.245 48.885 20.355 48.925 20.355C49.2 20.335 49.34 20.545 49.5 20.665C49.93 20.63 50.24 20.465 50.46 20.11C50.625 19.84 50.845 19.605 51.06 19.335C51.165 19.435 51.255 19.505 51.33 19.595C51.64 19.94 51.945 20.285 52.25 20.635C52.37 20.77 52.485 20.825 52.68 20.79C53.02 20.735 53.27 20.585 53.445 20.29C53.55 20.12 53.685 19.965 53.81 19.81C53.88 19.72 53.96 19.64 54.055 19.535C54.105 19.62 54.14 19.67 54.165 19.72C54.315 20.08 54.45 20.45 54.61 20.805C54.89 21.44 54.75 21.33 55.37 21.25C55.415 21.245 55.465 21.235 55.51 21.23C55.73 21.195 55.9 21.1 56.035 20.905C56.305 20.515 56.6 20.14 56.885 19.765C56.93 19.705 56.995 19.66 57.075 19.585C57.125 19.825 57.18 20.015 57.205 20.21C57.315 20.92 57.305 20.935 57.01 21.595C56.96 21.705 56.915 21.815 56.87 21.925C56.81 22.075 56.75 22.225 56.69 22.365C57.075 22.585 57.245 22.575 57.51 22.325C57.71 22.14 57.915 21.96 58.11 21.77C58.35 21.54 58.595 21.315 58.735 21.005C58.975 20.465 59.34 19.985 59.48 19.395C59.595 18.91 59.955 18.585 60.325 18.28C60.905 17.8 61.425 17.29 61.695 16.55C61.915 15.95 62.19 15.37 62.495 14.805C62.845 14.16 63.25 13.55 63.63 12.92C63.67 12.85 63.715 12.775 63.735 12.7C63.815 12.45 63.89 12.2 63.955 11.95C63.985 11.83 63.985 11.705 64 11.59C63.6 11.525 63.24 11.44 62.885 11.355ZM18.915 17.845C18.875 17.77 18.845 17.69 18.8 17.59C18.87 17.595 18.89 17.59 18.895 17.6C18.94 17.67 18.985 17.74 19.025 17.81C18.99 17.815 18.92 17.85 18.915 17.845ZM24.505 11.875C24.55 11.915 24.59 11.935 24.59 11.955C24.59 11.995 24.57 12.035 24.555 12.07C24.53 12.055 24.485 12.04 24.48 12.02C24.48 11.985 24.495 11.945 24.505 11.875ZM23.725 12.19C23.825 12.235 23.93 12.285 24.04 12.335C23.98 12.43 23.905 12.535 23.835 12.65C23.565 12.525 23.565 12.525 23.725 12.19ZM23.095 35.08C23.33 35.25 23.66 35.275 23.695 35.605C23.97 35.705 24.015 35.43 24.185 35.335C24.275 35.4 24.37 35.46 24.48 35.535C24.535 35.49 24.595 35.445 24.665 35.39C24.68 35.44 24.71 35.48 24.7 35.495C24.49 35.795 24.545 36.06 24.82 36.3C24.765 36.425 24.72 36.535 24.66 36.675C24.59 36.485 24.535 36.33 24.485 36.195C24.295 36.285 24.15 36.35 24.005 36.42C23.96 36.44 23.895 36.45 23.88 36.48C23.765 36.735 23.55 36.695 23.325 36.67C23.265 36.535 23.21 36.41 23.02 36.385C22.95 36.375 22.835 36.2 22.85 36.125C22.885 35.925 22.79 35.88 22.64 35.825C22.405 35.74 22.365 35.625 22.43 35.395C22.47 35.24 22.48 35.075 22.505 34.86C22.525 34.85 22.6 34.81 22.735 34.735C22.585 34.725 22.515 34.72 22.385 34.71C22.435 34.565 22.48 34.44 22.52 34.32C22.68 34.285 22.815 34.26 22.98 34.225C23.055 34.515 23.305 34.765 23.095 35.08ZM24.57 40.19C24.555 40.245 24.55 40.305 24.515 40.35C24.5 40.365 24.44 40.345 24.395 40.34C24.4 40.295 24.4 40.24 24.425 40.22C24.46 40.19 24.52 40.2 24.57 40.19ZM24.11 37.075C24.045 37.15 23.995 37.205 23.945 37.26C23.9 37.205 23.815 37.15 23.815 37.095C23.815 37.04 23.895 36.985 23.94 36.93C23.99 36.97 24.04 37.01 24.11 37.075ZM21.065 16.4C21.06 16.39 21.085 16.365 21.095 16.345C21.12 16.36 21.145 16.375 21.17 16.39C21.15 16.42 21.14 16.44 21.13 16.46C21.105 16.44 21.08 16.425 21.065 16.4ZM21.8 29.795C21.61 29.76 21.405 29.805 21.155 29.82C21.16 29.715 21.17 29.625 21.175 29.515C21.26 29.525 21.315 29.52 21.35 29.54C21.64 29.685 21.86 29.615 22.06 29.355C22.205 29.17 22.28 29.185 22.485 29.295C22.615 29.365 22.76 29.405 22.895 29.455C22.765 29.52 22.58 29.45 22.52 29.65C22.48 29.78 22.45 29.91 22.41 30.05C22.18 29.95 22 29.83 21.8 29.795ZM23.065 41.955C23.06 41.98 23.03 42.005 22.985 42.055C22.97 41.985 22.95 41.945 22.955 41.91C22.96 41.885 22.995 41.865 23.04 41.81C23.055 41.88 23.07 41.92 23.065 41.955ZM23.385 40.94C23.275 40.85 23.185 40.775 23.08 40.69C22.965 40.865 22.85 41.03 22.745 41.205C22.545 41.535 22.51 41.535 22.245 41.21C22.315 41.16 22.385 41.105 22.475 41.04C22.325 40.795 22.575 40.66 22.65 40.4C22.97 40.635 23.285 40.365 23.605 40.505C23.535 40.645 23.47 40.775 23.385 40.94ZM23.605 41.82C23.575 41.82 23.545 41.775 23.515 41.75C23.545 41.725 23.575 41.69 23.61 41.675C23.625 41.67 23.655 41.705 23.695 41.74C23.66 41.77 23.635 41.82 23.605 41.82ZM24.22 41.88C24.21 41.765 24.205 41.705 24.2 41.645C24.325 41.635 24.42 41.41 24.61 41.6C24.49 41.69 24.39 41.76 24.22 41.88ZM24.785 42.065C24.755 42.055 24.725 42.05 24.695 42.04C24.71 41.975 24.725 41.91 24.745 41.845C24.775 41.85 24.8 41.86 24.83 41.865C24.815 41.935 24.8 42 24.785 42.065ZM24.975 41.425C24.89 41.53 24.765 41.54 24.66 41.45C24.56 41.365 24.475 41.27 24.385 41.175C24.335 41.125 24.3 41.06 24.265 41.015C24.115 41.08 24 41.125 23.88 41.17C23.815 41.02 23.76 40.91 23.72 40.79C23.7 40.72 23.715 40.635 23.715 40.56C23.79 40.565 23.86 40.57 23.935 40.585C23.97 40.59 24 40.61 24.03 40.62C24.155 40.53 24.27 40.44 24.39 40.355C24.39 40.43 24.39 40.51 24.39 40.595C24.535 40.665 24.635 40.63 24.745 40.53C24.78 40.5 24.87 40.525 24.935 40.525C24.91 40.59 24.89 40.7 24.85 40.71C24.62 40.76 24.745 40.935 24.68 41.05C24.77 41.1 24.835 41.125 24.89 41.165C24.975 41.225 25.07 41.31 24.975 41.425ZM24.86 35.75C24.865 35.585 24.91 35.525 25.02 35.54C25.045 35.545 25.06 35.61 25.08 35.645C25.025 35.675 24.96 35.7 24.86 35.75ZM24.875 15.68C24.95 15.625 25.02 15.575 25.105 15.515C25.085 15.81 25.075 15.815 24.875 15.68ZM25.45 17.415C25.46 17.55 25.465 17.62 25.47 17.73C25.315 17.64 25.24 17.58 25.45 17.415ZM26.05 15.95C26.025 15.93 26 15.91 25.975 15.895C26.015 15.855 26.055 15.81 26.095 15.77C26.11 15.785 26.14 15.81 26.14 15.815C26.11 15.86 26.08 15.905 26.05 15.95ZM27.065 16.55C27.025 16.405 27.09 16.34 27.21 16.32C27.235 16.315 27.3 16.38 27.3 16.41C27.285 16.55 27.19 16.565 27.065 16.55ZM27.75 16.855C27.665 16.805 27.58 16.75 27.46 16.675C27.69 16.55 27.745 16.66 27.81 16.755C27.79 16.79 27.77 16.825 27.75 16.855ZM28.425 42.42C28.395 42.4 28.395 42.345 28.385 42.305C28.42 42.28 28.45 42.255 28.485 42.23C28.52 42.285 28.55 42.345 28.62 42.455C28.515 42.44 28.455 42.445 28.425 42.42ZM29.965 12.26C30.05 12.16 30.115 12.085 30.2 11.985C30.165 12.225 30.165 12.225 29.965 12.26ZM30.545 12.15C30.48 12.08 30.435 12.045 30.415 11.995C30.41 11.975 30.465 11.905 30.49 11.91C30.525 11.915 30.575 11.955 30.585 11.99C30.595 12.025 30.565 12.07 30.545 12.15ZM32.97 14.6C33.02 14.72 33.04 14.85 32.84 14.935C32.805 14.83 32.76 14.74 32.74 14.645C32.69 14.41 32.69 14.41 32.47 14.325C32.71 14.285 32.87 14.365 32.97 14.6ZM33.83 29.8C33.82 29.98 33.81 30.175 33.795 30.455C33.695 30.35 33.635 30.305 33.605 30.245C33.48 29.98 33.345 29.945 33.145 30.145C33.115 30.175 33.065 30.24 33.05 30.23C32.8 30.115 32.705 30.37 32.535 30.44C32.455 30.16 32.615 30.01 33.025 29.99C32.995 29.725 33.09 29.56 33.385 29.565C33.405 29.565 33.435 29.555 33.45 29.54C33.65 29.35 33.885 29.405 34.14 29.415C34.135 29.635 33.935 29.67 33.83 29.8ZM37.19 11.23C37.15 11.185 37.11 11.14 37.07 11.09C37.09 11.075 37.11 11.06 37.13 11.04C37.165 11.09 37.195 11.145 37.23 11.195C37.215 11.21 37.2 11.22 37.19 11.23ZM41.64 18.2C41.53 18.035 41.45 17.915 41.325 17.735C41.415 17.65 41.495 17.57 41.58 17.49C41.82 17.74 41.83 17.865 41.64 18.2ZM42.07 14.085C42.06 14.065 42.085 14.01 42.105 14C42.225 13.945 42.3 13.995 42.35 14.14C42.22 14.215 42.13 14.2 42.07 14.085ZM42.56 12.19C42.555 12.22 42.535 12.25 42.525 12.275C42.495 12.275 42.465 12.275 42.435 12.275C42.44 12.215 42.425 12.135 42.455 12.09C42.495 12.035 42.575 12.1 42.56 12.19ZM42.695 9.71C42.645 9.555 42.6 9.41499 42.55 9.27499C42.785 9.46499 42.785 9.48 42.695 9.71ZM42.795 8.88C42.79 8.96 42.795 9.085 42.625 9.05C42.665 8.72 42.45 8.37 42.8 8.05C42.8 8.33 42.805 8.605 42.795 8.88ZM43.47 23.87C43.36 23.795 43.265 23.735 43.125 23.645C43.3 23.63 43.43 23.62 43.6 23.605C43.545 23.715 43.515 23.785 43.47 23.87ZM51.56 26.28C51.59 26.35 51.62 26.42 51.65 26.49C51.625 26.5 51.6 26.51 51.575 26.52C51.545 26.45 51.515 26.38 51.485 26.31C51.51 26.3 51.535 26.29 51.56 26.28ZM51.085 25.68C51.135 25.81 51.18 25.92 51.225 26.03C51.205 26.05 51.185 26.065 51.16 26.085C51.1 26.05 51 26.025 50.995 25.985C50.99 25.895 50.84 25.765 51.085 25.68ZM48.015 25.83C48.06 25.895 48.105 25.935 48.1 25.965C48.1 26 48.05 26.025 48.02 26.06C47.99 26.025 47.95 26 47.94 25.96C47.935 25.93 47.975 25.895 48.015 25.83ZM49.145 19.19C49.13 19.125 49.11 19.09 49.12 19.075C49.135 19.045 49.165 19.015 49.195 19.01C49.21 19.005 49.26 19.065 49.255 19.075C49.23 19.105 49.195 19.135 49.145 19.19ZM49.755 18.97C49.67 18.87 49.6 18.785 49.505 18.68C49.655 18.65 49.665 18.425 49.875 18.5C49.84 18.655 49.8 18.795 49.755 18.97ZM50.18 13.315C50.02 13.205 49.865 13.08 49.69 12.985C49.525 12.895 49.355 12.8 49.175 12.77C48.58 12.665 47.98 12.6 47.385 12.495C47.015 12.43 46.65 12.315 46.29 12.22C46.065 12.16 45.85 12.085 45.555 11.995C45.68 11.93 45.73 11.89 45.785 11.875C46.445 11.74 47.105 11.61 47.765 11.475C47.81 11.465 47.86 11.46 47.9 11.44C48.43 11.17 48.97 11.39 49.505 11.41C49.57 11.415 49.65 11.45 49.695 11.5C49.92 11.77 50.19 12.01 50.2 12.405C50.205 12.695 50.24 12.99 50.26 13.28C50.23 13.29 50.205 13.305 50.18 13.315ZM52.35 16.07C52.265 16.105 52.175 16.14 52.09 16.18C52.06 16.195 52.04 16.225 51.975 16.28C52.13 16.5 52.15 16.7 51.955 16.895C51.91 16.94 51.93 17.07 51.95 17.155C51.975 17.25 52.01 17.335 51.9 17.395C51.585 17.26 51.585 17.26 51.375 17.555C51.265 17.565 51.15 17.575 51.01 17.59C51.015 17.265 51.235 17.06 51.475 17.005C51.74 16.945 51.8 16.775 51.915 16.565C51.82 16.535 51.745 16.505 51.64 16.475C51.665 16.41 51.68 16.34 51.71 16.285C51.795 16.13 51.88 15.975 51.98 15.83C52.03 15.755 52.1 15.68 52.175 15.645C52.36 15.555 52.53 15.605 52.575 15.735C52.62 15.87 52.545 15.985 52.35 16.07ZM53.375 15.545C53.355 15.465 53.34 15.38 53.325 15.33C53.215 15.25 53.13 15.185 53.04 15.125C53.005 15.1 52.96 15.06 52.925 15.065C52.79 15.085 52.68 15.06 52.66 14.91C52.64 14.765 52.6 14.6 52.78 14.505C52.815 14.485 52.84 14.44 52.865 14.41C52.665 14.05 52.32 13.93 51.96 13.81C51.99 13.705 52 13.605 52.04 13.53C52.185 13.265 52.45 13.23 52.65 13.455C52.805 13.63 52.94 13.825 52.96 14.075C52.965 14.145 53.025 14.27 53.06 14.27C53.14 14.27 53.24 14.23 53.295 14.17C53.46 13.995 53.61 13.805 53.765 13.62C53.795 13.635 53.82 13.65 53.85 13.665C53.83 13.79 53.84 13.925 53.79 14.03C53.585 14.435 53.675 14.87 53.625 15.295C53.605 15.445 53.565 15.54 53.375 15.545ZM53.97 15.725C53.905 15.645 53.835 15.575 53.795 15.49C53.775 15.45 53.79 15.38 53.82 15.34C53.835 15.315 53.91 15.305 53.94 15.315C53.975 15.33 54.015 15.38 54.015 15.415C54.005 15.52 53.985 15.62 53.97 15.725Z" fill="#B7B29F"/>
<path d="M51.44 30.52C51.435 30.48 51.355 30.425 51.31 30.42C51 30.41 50.69 30.265 50.375 30.4C50.335 30.415 50.285 30.405 50.24 30.4C49.885 30.345 49.885 30.34 49.875 30.695C49.87 30.79 49.875 30.885 49.87 30.98C49.865 31.15 49.955 31.215 50.115 31.205C50.185 31.2 50.255 31.195 50.33 31.19C50.33 31.195 50.335 31.205 50.335 31.21C50.52 31.17 50.72 31.17 50.88 31.085C51.065 30.99 51.215 30.835 51.375 30.695C51.41 30.66 51.445 30.58 51.44 30.52Z" fill="#B7B29F"/>
<path d="M23.445 35.85C23.58 35.7 23.455 35.565 23.395 35.425C23.36 35.55 23.325 35.675 23.29 35.82C23.34 35.835 23.425 35.875 23.445 35.85Z" fill="#B7B29F"/>
</g>
<defs>
<clipPath id="clip0_27_90">
<rect width="64" height="64" fill="white"/>
</clipPath>
</defs>
</svg>
